<?xml version="1.0" encoding="UTF-8" standalone="no"?>
<!-- Created with Inkscape (http://www.inkscape.org/) -->

<svg
   xmlns:dc="http://purl.org/dc/elements/1.1/"
   xmlns:cc="http://creativecommons.org/ns#"
   xmlns:rdf="http://www.w3.org/1999/02/22-rdf-syntax-ns#"
   xmlns:svg="http://www.w3.org/2000/svg"
   xmlns="http://www.w3.org/2000/svg"
   xmlns:sodipodi="http://sodipodi.sourceforge.net/DTD/sodipodi-0.dtd"
   xmlns:inkscape="http://www.inkscape.org/namespaces/inkscape"
   version="1.1"
   width="260"
   height="90"
   id="svg2948"
   sodipodi:docname="logo2.svg"
   inkscape:version="0.92.5 (2060ec1f9f, 2020-04-08)">
  <metadata
     id="metadata90">
    <rdf:RDF>
      <cc:Work
         rdf:about="">
        <dc:format>image/svg+xml</dc:format>
        <dc:type
           rdf:resource="http://purl.org/dc/dcmitype/StillImage" />
        <dc:title></dc:title>
      </cc:Work>
    </rdf:RDF>
  </metadata>
  <sodipodi:namedview
     pagecolor="#ffffff"
     bordercolor="#666666"
     borderopacity="1"
     objecttolerance="10"
     gridtolerance="10"
     guidetolerance="10"
     inkscape:pageopacity="0"
     inkscape:pageshadow="2"
     inkscape:window-width="1920"
     inkscape:window-height="1010"
     id="namedview88"
     showgrid="false"
     inkscape:zoom="6.7269231"
     inkscape:cx="130"
     inkscape:cy="45"
     inkscape:window-x="0"
     inkscape:window-y="38"
     inkscape:window-maximized="1"
     inkscape:current-layer="svg2948" />
  <defs
     id="defs2950" />
  <g
     transform="translate(121.06306,-355.93976)"
     id="layer1">
    <path
       d="m -101.47577,400.00486 c -0.0431,8.1975 5.967822,13.08438 15.560005,10.8625 l 0,-21.725 c -9.713433,-2.95812 -15.519375,3.02656 -15.560005,10.8625 m 15.853442,-42.27625 13.21125,0 0,62.53344 c -12.663437,2.07031 -24.79187,3.38344 -33.468442,-1.46813 -11.17187,-6.24625 -12.07,-26.09562 -3.22968,-34.93625 4.48218,-4.48187 13.505622,-7.63718 23.193435,-5.57812 l 0,-19.67 c -0.02531,-0.41688 -0.04875,-0.83188 0.293437,-0.88094"
       id="path2838"
       style="fill:#000000;fill-opacity:1;fill-rule:evenodd;stroke:none" />
    <path
       d="m -50.979419,371.52699 -13.211251,0 0,-13.79844 13.211251,0 0,13.79844 z"
       id="path2840"
       style="fill:#000000;fill-opacity:1;fill-rule:evenodd;stroke:none" />
    <path
       d="m 107.55577,411.45442 c 14.40218,5.59688 15.99562,-25.77875 1.46812,-22.89968 -9.02187,1.78812 -8.73218,20.07687 -1.46812,22.89968 m 0.58718,-33.76218 c 10.99844,-1.17594 19.29594,3.6775 22.60625,11.15625 5.64813,12.76031 -0.31062,27.40218 -9.39468,31.70718 -4.70813,2.23125 -9.63813,2.44375 -14.09219,2.055 -13.766874,-1.20062 -22.449374,-15.23062 -17.614999,-30.82656 0.756562,-2.44094 1.606562,-3.93406 2.055312,-4.69719 2.9925,-5.08812 8.044688,-8.49687 16.440307,-9.39468"
       id="path2844"
       style="fill:#000000;fill-opacity:1;fill-rule:evenodd;stroke:none" />
    <path
       d="m -32.777012,406.46358 c -3.654062,6.14094 5.526875,7.61219 11.449375,5.87187 l 0,-9.10125 c -4.550625,0.63532 -9.730312,0.33969 -11.449375,3.22938 m 23.192813,14.38562 c -10.913125,0.62782 -27.498125,4.34532 -33.468438,-2.93562 -3.5075,-4.27813 -3.130312,-12.43781 0,-16.44094 4.045313,-5.1725 12.875938,-6.30062 20.844375,-7.04594 0.723438,-1.78125 0.235625,-4.67937 -0.587187,-5.87218 -7.28875,-1.85657 -14.530625,1.02031 -19.669688,3.22937 l 0,-10.275 c 7.761875,-3.56625 25.740625,-7.32125 31.119688,0.88063 2.825,4.30781 1.76125,11.82062 1.76125,18.49562 l 0,19.96406 z"
       id="path2848"
       style="fill:#000000;fill-opacity:1;fill-rule:evenodd;stroke:none" />
    <path
       d="m 36.802301,421.43674 -13.21125,0 0,-17.02813 c 0,-5.60656 0.906875,-12.71562 -2.055625,-14.97281 -2.32,-1.76875 -7.824063,-0.88125 -11.155625,0 l 0,32.00094 -13.2115628,0 0,-40.80844 c 13.5053128,-3.50813 37.8831248,-7.26938 39.6340628,9.68812 0.863437,8.36063 -0.639688,20.90407 0,31.12032"
       id="path2852"
       style="fill:#000000;fill-opacity:1;fill-rule:evenodd;stroke:none" />
    <path
       d="m 56.472393,407.34433 c 2.223125,3.59687 8.243125,4.94562 13.210938,2.64219 -0.272813,-6.87094 -0.368125,-13.91938 -0.293438,-21.13813 -11.4175,-3.01656 -18.221875,9.91594 -12.9175,18.49594 m 33.175,-27.89031 c -1.175937,3.52156 -2.896875,6.4975 -4.40375,9.68843 -1.361562,0.305 -2.541562,-0.54125 -3.229687,0 -0.30125,14.31094 3.047812,33.71157 -2.642188,44.03719 -3.425937,6.21688 -9.733437,10.20531 -19.376562,10.86281 -7.024688,0.47907 -12.476875,-0.66875 -17.615,-2.64218 l 0,-12.33063 c 6.026562,3.51875 21.255,6.3875 25.541875,-0.88094 1.26125,-2.13843 1.18125,-4.34875 1.76125,-7.63312 -2.76,0.145 -5.439375,1.42312 -8.807188,1.46812 -13.845937,0.18375 -22.411875,-10.84093 -19.083125,-26.12937 1.2875,-5.91375 4.7525,-10.67531 9.395,-13.50469 9.641875,-5.87656 24.462813,-5.43031 38.459375,-2.93562"
       id="path2856"
       style="fill:#000000;fill-opacity:1;fill-rule:evenodd;stroke:none" />
    <path
       d="m -50.979389,378.51405 c -0.015,9.72844 -0.0128,16.71906 -0.01375,28.53781 -0.56125,11.61469 -0.430625,20.86375 -4.683438,26.42125 -0.83875,1.09594 -2.62,2.69469 -4.110312,3.81688 -1.251564,0.94218 -3.636876,2.85281 -4.990939,2.93593 -1.365,0.0838 -4.871875,-1.895 -6.459062,-2.6425 -2.084063,-0.98156 -4.010625,-2.285 -6.165,-2.93562 5.025312,-3.11406 9.795625,-5.44875 11.743125,-11.74344 1.69375,-5.47437 1.468125,-13.40719 1.468125,-21.13812 0,-7.63375 0.03406,-16.50875 0.03406,-23.24875 l 13.177189,-0.003 z"
       id="path2860"
       style="fill:#000000;fill-opacity:1;fill-rule:evenodd;stroke:none" />
  </g>
  <path
     style="fill:#ffffff;fill-opacity:1;stroke-width:0.14865637"
     d="M 26.877073,65.975669 C 21.673318,65.54978 17.264444,64.206824 14.092624,62.08149 12.817715,61.227214 10.80387,59.141152 9.813597,57.649016 5.9788902,51.870905 4.9900543,43.191188 7.3377994,35.917174 c 0.5829777,-1.806237 2.0234264,-4.679503 2.9959696,-5.976065 2.870184,-3.826431 7.507024,-6.495308 13.336881,-7.676456 2.925205,-0.592656 8.861595,-0.532502 11.271031,0.11421 l 0.334477,0.08977 V 12.19401 1.9193825 h 6.689885 6.689884 l -0.03751,31.1806745 -0.03751,31.180675 -3.158313,0.472565 c -7.983886,1.194598 -14.022042,1.592584 -18.545517,1.222372 z m 5.512382,-10.538761 c 0.742501,-0.07825 1.69576,-0.216424 2.118353,-0.307054 l 0.76835,-0.164782 V 44.058134 33.151196 l -0.557462,-0.158085 c -2.575595,-0.730391 -5.762799,-0.770648 -7.841623,-0.09905 -4.801566,1.551226 -7.609902,6.160167 -7.303972,11.987012 0.171616,3.268653 1.142528,5.678895 3.053224,7.579477 2.398757,2.386061 5.729474,3.401453 9.76313,2.976356 z"
     id="path92"
     inkscape:connector-curvature="0" />
  <path
     style="fill:#ffffff;fill-opacity:1;stroke-width:0.14865637"
     d="M 54.898799,83.901543 C 54.285592,83.701938 51.910806,82.592646 49.621498,81.436449 47.33219,80.280252 45.10162,79.185292 44.664676,79.003204 l -0.794444,-0.331068 1.537726,-0.939062 c 2.866049,-1.750249 4.65533,-3.03984 5.978233,-4.308701 3.283379,-3.14925 4.52027,-6.170181 5.244956,-12.810057 0.193366,-1.7717 0.244549,-5.158982 0.303435,-20.08144 l 0.07084,-17.950257 h 6.528167 6.528166 v 13.730856 c 0,13.398266 -0.119284,18.529524 -0.596572,25.663083 -0.528644,7.901124 -1.793081,12.510189 -4.292885,15.648227 -1.860521,2.335537 -7.045365,6.236105 -8.712602,6.554506 -0.278188,0.05313 -0.86542,-0.05137 -1.560892,-0.277748 z"
     id="path94"
     inkscape:connector-curvature="0" />
  <path
     style="fill:#ffffff;fill-opacity:1;stroke-width:0.14865637"
     d="m 60.213265,15.484425 c 1.819182,-0.02365 4.796026,-0.02365 6.615208,0 1.819183,0.02365 0.330761,0.043 -3.307604,0.043 -3.638365,0 -5.126787,-0.01935 -3.307604,-0.043 z"
     id="path96"
     inkscape:connector-curvature="0" />
  <path
     style="fill:#ffffff;fill-opacity:1;stroke-width:0.14865637"
     d="M 56.979989,8.6832476 V 1.9193825 h 6.54088 6.540881 v 6.7638651 6.7638654 h -6.540881 -6.54088 z"
     id="path98"
     inkscape:connector-curvature="0" />
  <path
     style="fill:#ffffff;fill-opacity:1;stroke-width:0.14865637"
     d="m 88.123499,66.189249 c -4.583975,-0.552952 -7.488568,-1.69183 -9.521984,-3.733521 -3.234111,-3.247274 -3.973712,-10.082354 -1.625927,-15.026122 2.282812,-4.806953 7.822052,-7.320034 18.841629,-8.548197 3.635848,-0.405225 3.420789,-0.226586 3.33598,-2.77106 -0.06307,-1.892389 -0.395723,-3.167783 -0.91114,-3.493354 -0.603845,-0.381429 -2.497931,-0.594929 -5.138569,-0.579216 -2.190103,0.01303 -2.912087,0.07836 -4.565632,0.413084 -2.314818,0.468591 -4.930836,1.282652 -7.725303,2.403984 -1.109589,0.445243 -2.042477,0.809533 -2.073084,0.809533 -0.03061,0 -0.05565,-2.26937 -0.05565,-5.043044 v -5.043044 l 1.523728,-0.591284 c 10.036147,-3.894534 21.079363,-4.456888 26.388173,-1.343766 1.17274,0.687702 2.84236,2.388827 3.41299,3.477393 0.60258,1.149513 1.15716,3.069367 1.35558,4.692757 0.10549,0.863058 0.12693,6.421869 0.0661,17.13041 l -0.0901,15.852751 -0.45916,0.0658 c -0.72824,0.104363 -11.711338,1.124984 -13.7639,1.279032 -1.751526,0.131454 -8.024012,0.164837 -8.993711,0.04786 z m 9.870175,-9.338406 c 0.686458,-0.120807 1.372136,-0.259014 1.523728,-0.307127 0.260567,-0.0827 0.275623,-0.338664 0.275623,-4.685809 0,-3.579751 -0.04116,-4.59825 -0.185821,-4.597969 -0.66982,0.0013 -6.045253,0.633468 -7.001066,0.823348 -2.624598,0.521398 -3.792991,1.257556 -4.620169,2.910986 -0.851884,1.702818 -0.721784,3.18758 0.375451,4.284815 0.63756,0.637561 1.99082,1.266938 3.329832,1.548646 1.38293,0.290949 4.711141,0.303152 6.302422,0.02311 z"
     id="path100"
     inkscape:connector-curvature="0" />
  <path
     style="fill:#ffffff;fill-opacity:1;stroke-width:0.14865637"
     d="m 118.26305,45.076273 0.0377,-20.319383 1.33791,-0.340784 c 6.55459,-1.669543 13.26124,-2.597063 18.80503,-2.600708 7.74295,-0.0051 12.46083,1.438695 15.855,4.852018 1.19106,1.197778 1.45401,1.561866 2.10588,2.915813 1.2087,2.510478 1.46699,3.976957 1.60787,9.128606 0.0588,2.149719 -0.004,6.509755 -0.16892,11.743854 -0.16005,5.077155 -0.22732,9.615099 -0.17244,11.632361 l 0.09,3.307605 h -6.56005 -6.56004 l 0.0864,-12.970269 c 0.0522,-7.829311 0.0306,-13.441646 -0.0545,-14.15952 -0.28324,-2.390481 -1.08805,-4.19358 -2.20621,-4.942804 -0.96576,-0.647112 -1.99083,-0.851304 -4.24604,-0.8458 -2.10633,0.0051 -3.25484,0.145221 -5.61178,0.684453 l -1.30074,0.29759 V 49.42748 65.395655 h -6.54141 -6.54141 z"
     id="path102"
     inkscape:connector-curvature="0" />
  <path
     style="fill:#ffffff;fill-opacity:1;stroke-width:0.14865637"
     d="m 175.01315,88.053043 c -0.28616,-0.03315 -1.1558,-0.132835 -1.93253,-0.221533 -2.5817,-0.294814 -5.81265,-1.064322 -8.43625,-2.009243 l -1.07776,-0.388166 v -6.081969 -6.081969 l 0.91407,0.461422 c 2.30285,1.162475 5.92284,2.24761 9.19456,2.756181 2.37806,0.369656 6.7348,0.373562 8.45642,0.0076 0.68562,-0.145751 1.55526,-0.367769 1.93254,-0.493376 3.07896,-1.025097 5.22792,-3.222004 5.88204,-6.013296 0.2655,-1.132942 0.87903,-5.33131 0.79184,-5.418504 -0.0925,-0.09252 -2.37413,0.309972 -4.12973,0.728522 -2.52974,0.603112 -3.85815,0.742128 -6.15785,0.644407 -5.20477,-0.221166 -9.39062,-1.963764 -12.72819,-5.298833 -3.49511,-3.492486 -5.22689,-7.748804 -5.44588,-13.384691 -0.22526,-5.797553 1.27611,-11.252459 4.22444,-15.348522 6.57625,-9.136286 20.50228,-12.029978 41.9228,-8.711152 1.1651,0.180516 2.11835,0.388097 2.11835,0.461292 0,0.38578 -1.39095,3.591273 -2.75867,6.357448 l -1.55345,3.141813 -1.59751,-0.04878 -1.59751,-0.04878 0.0316,3.977746 c 0.0173,2.187759 0.13744,6.168034 0.26687,8.845054 0.9352,19.343047 0.0382,26.881067 -3.90422,32.810273 -3.33503,5.015705 -8.55832,7.979684 -16.01529,9.087956 -1.41131,0.209752 -7.28784,0.398011 -8.40064,0.269121 z m 13.56023,-33.201292 c 0.60847,-0.155623 1.36221,-0.389866 1.67496,-0.520544 l 0.56864,-0.237593 -0.0972,-2.562245 c -0.0535,-1.409234 -0.14085,-6.174594 -0.19415,-10.589688 -0.0635,-5.257476 -0.14994,-8.061959 -0.25059,-8.127469 -0.0845,-0.05501 -0.7242,-0.181012 -1.42152,-0.279996 -5.1357,-0.729014 -9.73044,1.86807 -12.00158,6.783656 -1.18494,2.564645 -1.51473,6.055599 -0.82047,8.684987 0.48813,1.848728 1.40733,3.61496 2.39513,4.602218 2.28806,2.286824 6.41607,3.200835 10.14681,2.246674 z"
     id="path104"
     inkscape:connector-curvature="0" />
  <path
     style="fill:#ffffff;fill-opacity:1;stroke-width:0.14865637"
     d="m 228.60377,66.632632 c -8.07998,-0.692333 -14.72455,-5.763209 -17.60059,-13.432077 -1.03802,-2.767866 -1.39022,-4.695232 -1.46779,-8.032428 -0.0523,-2.250687 -0.0112,-3.276817 0.18167,-4.534019 1.48079,-9.652498 6.22256,-15.542621 14.35257,-17.828469 2.89949,-0.815226 4.69156,-1.035692 8.39921,-1.033295 2.9969,0.0019 3.61184,0.04403 4.97999,0.340832 3.01559,0.654205 5.55195,1.680768 7.76448,3.142585 1.31377,0.868012 3.35116,2.742417 4.25675,3.916226 2.6221,3.398731 4.2048,8.109035 4.42924,13.18193 0.38568,8.717481 -3.76198,17.488288 -10.13005,21.421385 -2.22086,1.371665 -5.55796,2.438114 -8.77325,2.803698 -1.23722,0.140673 -5.00724,0.172306 -6.39223,0.05363 z m 5.46782,-10.764818 c 3.88265,-1.306851 6.38463,-6.376352 6.15602,-12.473303 -0.13451,-3.587316 -1.00289,-6.286586 -2.68793,-8.355149 -2.76474,-3.394009 -8.19456,-3.573259 -11.19156,-0.369457 -5.018,5.364259 -3.79788,18.208374 1.97453,20.785719 1.75002,0.781368 4.14247,0.952904 5.74894,0.41219 z"
     id="path106"
     inkscape:connector-curvature="0" />
  <path
     style="fill:#ffffff;fill-opacity:1;stroke-width:0.14865637"
     d="m 35.197712,12.399657 c 1.5e-5,-5.4779875 0.01857,-7.6973826 0.04123,-4.9319893 0.02266,2.7653933 0.02265,7.2473833 -2.8e-5,9.9599773 -0.02267,2.712594 -0.04122,0.449999 -0.0412,-5.027988 z"
     id="path108"
     inkscape:connector-curvature="0" />
</svg>
